
<svg width="485px" height="103px" viewBox="0 0 485 103" version="1.1" xmlns="http://www.w3.org/2000/svg" xmlns:xlink="http://www.w3.org/1999/xlink">
    <defs>
        <linearGradient x1="-151.04483%" y1="88.675685%" x2="248.933864%" y2="9.48881411%" id="linearGradient-1">
            <stop stop-color="#FFF200" offset="0%"></stop>
            <stop stop-color="#CD118C" offset="100%"></stop>
        </linearGradient>
        <linearGradient x1="21.1505%" y1="247%" x2="93.1505%" y2="-244.666667%" id="linearGradient-2">
            <stop stop-color="#FFF200" offset="0%"></stop>
            <stop stop-color="#CD118C" offset="100%"></stop>
        </linearGradient>
        <linearGradient x1="17.502125%" y1="271.925%" x2="89.502125%" y2="-219.741667%" id="linearGradient-3">
            <stop stop-color="#FFF200" offset="0%"></stop>
            <stop stop-color="#CD118C" offset="100%"></stop>
        </linearGradient>
        <linearGradient x1="-53.7892857%" y1="570.9375%" x2="93.1494898%" y2="-166.5625%" id="linearGradient-4">
            <stop stop-color="#FFF200" offset="0%"></stop>
            <stop stop-color="#CD118C" offset="100%"></stop>
        </linearGradient>
        <linearGradient x1="-276.493557%" y1="520.21272%" x2="291.630088%" y2="-297.932557%" id="linearGradient-5">
            <stop stop-color="#FFF200" offset="0%"></stop>
            <stop stop-color="#CD118C" offset="100%"></stop>
        </linearGradient>
        <linearGradient x1="-329.409131%" y1="273.762402%" x2="560.866948%" y2="-251.334318%" id="linearGradient-6">
            <stop stop-color="#FFF200" offset="0%"></stop>
            <stop stop-color="#CD118C" offset="100%"></stop>
        </linearGradient>
        <linearGradient x1="-190.4125%" y1="90.7066327%" x2="609.5875%" y2="-44.752551%" id="linearGradient-7">
            <stop stop-color="#FFF200" offset="0%"></stop>
            <stop stop-color="#CD118C" offset="100%"></stop>
        </linearGradient>
        <linearGradient x1="-155.39501%" y1="171.23226%" x2="732.084613%" y2="-352.506725%" id="linearGradient-8">
            <stop stop-color="#FFF200" offset="0%"></stop>
            <stop stop-color="#CD118C" offset="100%"></stop>
        </linearGradient>
        <linearGradient x1="-480.753304%" y1="363.22125%" x2="408.130053%" y2="-161.195724%" id="linearGradient-9">
            <stop stop-color="#FFF200" offset="0%"></stop>
            <stop stop-color="#CD118C" offset="100%"></stop>
        </linearGradient>
        <linearGradient x1="-528.275%" y1="147.916327%" x2="271.725%" y2="12.4571429%" id="linearGradient-10">
            <stop stop-color="#FFF200" offset="0%"></stop>
            <stop stop-color="#CD118C" offset="100%"></stop>
        </linearGradient>
        <linearGradient x1="-654.44704%" y1="465.550629%" x2="235.126484%" y2="-59.2193498%" id="linearGradient-11">
            <stop stop-color="#FFF200" offset="0%"></stop>
            <stop stop-color="#CD118C" offset="100%"></stop>
        </linearGradient>
        <linearGradient x1="-396.768496%" y1="693.486345%" x2="171.72268%" y2="-125.273067%" id="linearGradient-12">
            <stop stop-color="#FFF200" offset="0%"></stop>
            <stop stop-color="#CD118C" offset="100%"></stop>
        </linearGradient>
        <linearGradient x1="-21.4110273%" y1="123.156095%" x2="123.47107%" y2="-20.7463302%" id="linearGradient-13">
            <stop stop-color="#FFF200" offset="0%"></stop>
            <stop stop-color="#CD118C" offset="100%"></stop>
        </linearGradient>
        <linearGradient x1="-196.712183%" y1="187.207902%" x2="255.646847%" y2="-67.828225%" id="linearGradient-14">
            <stop stop-color="#FFF200" offset="0%"></stop>
            <stop stop-color="#CD118C" offset="100%"></stop>
        </linearGradient>
        <linearGradient x1="-43.97%" y1="86.7182093%" x2="276.03%" y2="-38.3250433%" id="linearGradient-15">
            <stop stop-color="#FFF200" offset="0%"></stop>
            <stop stop-color="#CD118C" offset="100%"></stop>
        </linearGradient>
        <linearGradient x1="100%" y1="82.7983061%" x2="0%" y2="17.2016939%" id="linearGradient-16">
            <stop stop-color="#F5C51C" offset="0%"></stop>
            <stop stop-color="#DB5164" offset="100%"></stop>
        </linearGradient>
    </defs>
    <g id="Page-1" stroke="none" stroke-width="1" fill="none" fill-rule="evenodd">
        <g id="Touch-Bar" transform="translate(-225.000000, -150.000000)">
            <g id="lamp(1)" transform="translate(356.000000, 150.000000)" fill-rule="nonzero">
                <path d="M59.3266415,49.3082316 L56.3687304,51.3609547 L53.410819,49.3082316 C52.8217085,48.8989608 52.0282631,48.8989608 51.4399767,49.3082316 L48.4903047,51.3593623 L45.538985,49.3082316 C44.9498745,48.8989608 44.1564291,48.8989608 43.5681427,49.3082316 L40.6184705,51.3593623 L37.6753902,49.3082316 C36.9190217,48.7811163 35.8643904,48.9467356 35.3189481,49.6776899 C34.7735061,50.4078478 34.9448837,51.4278394 35.701252,51.9549547 L39.6314016,54.6924498 C40.2205122,55.1025167 41.0147814,55.1025167 41.6038919,54.6924498 L44.5535636,52.641319 L47.5048836,54.6924498 C48.09317,55.1017205 48.8866153,55.1017205 49.4757259,54.6924498 L52.4270458,52.641319 L55.383309,54.6924498 C55.9715956,55.1017205 56.765041,55.1017205 57.3541513,54.6924498 L61.2974838,51.9565471 C62.0538521,51.4302282 62.2268777,50.4110328 61.6822595,49.6800787 C61.1376411,48.9483282 60.0830098,48.7819127 59.3266415,49.3082316 L59.3266415,49.3082316 Z" id="Path" fill="url(#linearGradient-1)"></path>
                <path d="M43.5,58 C42.6716308,58 42,58.7462565 42,59.6666667 L42,76.3333333 C42,77.2537435 42.6716308,78 43.5,78 C44.3283692,78 45,77.2537435 45,76.3333333 L45,59.6666667 C45,58.7462565 44.3283692,58 43.5,58 Z" id="Path" fill="url(#linearGradient-2)"></path>
                <path d="M54.5,58 C53.6716308,58 53,58.7462565 53,59.6666667 L53,76.3333333 C53,77.2537435 53.6716308,78 54.5,78 C55.3283692,78 56,77.2537435 56,76.3333333 L56,59.6666667 C56,58.7462565 55.3283692,58 54.5,58 Z" id="Path" fill="url(#linearGradient-3)"></path>
                <path d="M49.5,14 C50.3283692,14 51,13.2164307 51,12.25 L51,1.75 C51,0.783569281 50.3283692,0 49.5,0 C48.6716308,0 48,0.783569281 48,1.75 L48,12.25 C48,13.2164307 48.6716308,14 49.5,14 Z" id="Path" fill="url(#linearGradient-4)"></path>
                <path d="M29.0126983,17.1582315 C29.296691,17.6774264 29.8248857,17.9991814 30.3983319,18 C30.9717783,18.0016187 31.5023137,17.6831141 31.7878667,17.1647316 C32.0734194,16.6471616 32.0702986,16.0093396 31.7808449,15.4942072 L26.9873017,6.84176825 C26.703309,6.32257333 26.1751143,6.00163109 25.6016681,6 C25.0282217,5.99838105 24.4976863,6.31769816 24.2121333,6.83526816 C23.9265806,7.35283837 23.9297014,7.99066013 24.2191551,8.50579255 L29.0126983,17.1582315 Z" id="Path" fill="url(#linearGradient-5)"></path>
                <path d="M6.82541044,26.9846764 L15.5059283,31.7906463 C16.303069,32.2255614 17.3178337,31.9611706 17.7759041,31.1985044 C18.2347897,30.4358382 17.966631,29.4611901 17.175196,29.0153236 L8.49467809,24.2093537 C7.69672266,23.7744386 6.68277298,24.0388294 6.22388734,24.8014956 C5.76500169,25.5641618 6.03397559,26.5388099 6.82541044,26.9846764 Z" id="Path" fill="url(#linearGradient-6)"></path>
                <path d="M14,48.5 C14,47.6716308 13.2164307,47 12.25,47 L1.75,47 C0.783569281,47 0,47.6716308 0,48.5 C0,49.3283692 0.783569281,50 1.75,50 L12.25,50 C13.2164307,50 14,49.3283692 14,48.5 Z" id="Path" fill="url(#linearGradient-7)"></path>
                <path d="M15.4942072,66.2191551 L6.84176825,71.0126983 C6.32257333,71.296691 6.00163109,71.8248857 6,72.3983319 C5.99838105,72.9717783 6.31769816,73.5023137 6.83526816,73.7878667 C7.35283837,74.0734194 7.99066013,74.0702986 8.50579255,73.7808449 L17.1582315,68.9873017 C17.6774264,68.703309 17.9991814,68.1751143 18,67.6016681 C18.0016187,67.0282217 17.6831141,66.4976863 17.1647316,66.2121333 C16.6471616,65.9265806 16.0093396,65.9297014 15.4942072,66.2191551 Z" id="Path" fill="url(#linearGradient-8)"></path>
                <path d="M91.1758808,71.0191873 L82.5089425,66.2194388 C81.992995,65.9296104 81.3549782,65.9264855 80.8365895,66.2124079 C80.3173871,66.4983306 79.9983787,67.0295527 80,67.6037415 C80.0008199,68.17793 80.3222698,68.7068085 80.8422862,68.9911688 L89.5092245,73.7909174 C90.3059316,74.2252694 91.3182951,73.9612208 91.7764629,73.1995419 C92.2346307,72.437863 91.9660776,71.4644766 91.1758808,71.0191873 L91.1758808,71.0191873 Z" id="Path" fill="url(#linearGradient-9)"></path>
                <path d="M96.25,47 L85.75,47 C84.7835693,47 84,47.6716308 84,48.5 C84,49.3283692 84.7835693,50 85.75,50 L96.25,50 C97.2164307,50 98,49.3283692 98,48.5 C98,47.6716308 97.2164307,47 96.25,47 Z" id="Path" fill="url(#linearGradient-10)"></path>
                <path d="M81.6684126,32 C81.9607926,32.0007756 82.2491003,31.9265107 82.5023877,31.7857986 L91.1752409,26.9828192 C91.9660514,26.5372301 92.2348128,25.5631885 91.7762893,24.8009969 C91.317766,24.0388053 90.3046165,23.774579 89.5072905,24.2092234 L80.8344374,29.0122029 C80.1804509,29.3749279 79.8620092,30.1136675 80.0566577,30.8133202 C80.2521207,31.512973 80.9134369,32 81.6684126,32 L81.6684126,32 Z" id="Path" fill="url(#linearGradient-11)"></path>
                <path d="M66.7996495,17.7764486 C67.5647392,18.2366756 68.5421804,17.9634667 68.9840589,17.1666074 L73.7807031,8.5076735 C74.0703441,7.99215441 74.0734669,7.35385387 73.7877294,6.83589515 C73.5019917,6.31793663 72.9711131,5.99837983 72.3972958,6 C71.8234786,6.00163232 71.2949422,6.32281547 71.0107658,6.84240012 L66.2141215,15.501334 C65.7730239,16.2981933 66.0353404,17.3162218 66.7996495,17.7764486 L66.7996495,17.7764486 Z" id="Path" fill="url(#linearGradient-12)"></path>
                <path d="M49,17.0000065 C34.702907,16.9909737 22.1375492,26.4664746 18.2242884,40.2084571 C14.3102053,53.9496177 20.0004269,68.6177029 32.1595754,76.1333502 L32.1595754,84.3170735 C32.1595754,85.2464631 32.9136119,86.0000065 33.8436178,86.0000065 L64.1563822,86.0000065 C65.0863881,86.0000065 65.8404246,85.2464631 65.8404246,84.3170735 L65.8404246,76.1333502 C77.9995731,68.6177029 83.6897947,53.9496177 79.7757116,40.2084571 C75.8624508,26.4664746 63.297093,16.9909737 49,17.0000065 Z M63.3143609,73.7231826 C62.7938537,74.0231181 62.4731619,74.5777937 62.4723397,75.1784867 L62.4723397,82.634147 L35.5276603,82.634147 L35.5276603,75.1784867 C35.5268381,74.5777937 35.2061463,74.0231181 34.6856391,73.7231826 C23.4638971,67.2486815 17.993226,54.0490486 21.3465096,41.5413216 C24.7006158,29.0335949 36.0424115,20.3362833 49,20.3362833 C61.9575885,20.3362833 73.2993842,29.0335949 76.6534904,41.5413216 C80.006774,54.0490486 74.5361029,67.2486815 63.3143609,73.7231826 L63.3143609,73.7231826 Z" id="Shape" fill="url(#linearGradient-13)"></path>
                <path d="M51,25.6598961 C51,24.7432249 50.2404543,24 49.3036536,24 C40.2172672,24.0186415 31.8249909,28.7592335 27.2644036,36.4492211 C26.930601,36.9638862 26.9115504,37.6163356 27.214706,38.1488315 C27.51869,38.6813274 28.0960109,39.0079574 28.7188881,39 C29.3425935,38.9909371 29.9108034,38.6497182 30.1990497,38.1091173 C34.1533258,31.4435968 41.4274049,27.3351918 49.3036536,27.3197923 C50.2404543,27.3197923 51,26.5765674 51,25.6598961 Z" id="Path" fill="url(#linearGradient-14)"></path>
                <path d="M64.3,89 L33.7,89 C32.7611816,89 32,89.7835693 32,90.75 L32,101.25 C32,102.216431 32.7611816,103 33.7,103 L64.3,103 C65.2388184,103 66,102.216431 66,101.25 L66,90.75 C66,89.7835693 65.2388184,89 64.3,89 Z M62.6,99.5 L35.4,99.5 L35.4,92.5 L62.6,92.5 L62.6,99.5 Z" id="Shape" fill="url(#linearGradient-15)"></path>
            </g>
            <text id="wiz" fill="url(#linearGradient-16)" font-family="AvenirNext-Bold, Avenir Next" font-size="72" font-weight="bold">
                <tspan x="225" y="224">wiz</tspan>
            </text>
            <text id="project" font-family="AvenirNext-Bold, Avenir Next" font-size="72" font-weight="bold" fill="#4A4A4A">
                <tspan x="464" y="222">project</tspan>
            </text>
        </g>
    </g>
</svg>